<svg width="48" height="54" viewBox="0 0 48 54" fill="none" xmlns="http://www.w3.org/2000/svg">
<path d="M41.4245 44.4679L39.7558 43.1924C40.7792 41.8595 41.6733 40.4221 42.4136 38.9194L44.3004 39.8443C43.4994 41.4703 42.5319 43.0258 41.4245 44.4679ZM47.1271 27.6641C47.1271 27.4596 47.125 27.2557 47.1205 27.0522L45.0187 27.098C45.0227 27.2864 45.0248 27.4751 45.0248 27.6641C45.0248 30.7953 44.4642 33.8526 43.3585 36.7516L45.3232 37.4975C46.5201 34.3595 47.1271 31.051 47.1271 27.6641ZM46.9477 24.5018C46.5415 20.9411 45.4612 17.5422 43.7372 14.4002L41.8931 15.407C43.4858 18.3097 44.4834 21.4496 44.8589 24.7391L46.9477 24.5018ZM42.4029 12.2151C40.3957 9.24623 37.8692 6.72476 34.8942 4.72101L33.7178 6.45909C36.4683 8.31178 38.804 10.6428 40.6599 13.3877L42.4029 12.2151ZM32.7048 3.38923C29.5561 1.66777 26.1497 0.588235 22.5803 0.180881L22.3413 2.26453C25.6388 2.64077 28.7855 3.63807 31.6941 5.22829L32.7048 3.38923ZM19.3936 2.09707C19.5884 2.09707 19.7828 2.09941 19.9765 2.10367L20.0237 0.00724374C19.8146 0.0025566 19.6049 0 19.3943 0C16.0043 0 12.6927 0.603362 9.55133 1.79347L10.2978 3.75397C13.1997 2.65462 16.2602 2.09707 19.3936 2.09707ZM8.11007 4.70226L7.18312 2.81995C5.55348 3.61847 3.99412 4.58381 2.54816 5.68869L3.82688 7.35348C5.16327 6.33211 6.60431 5.44006 8.11007 4.70226ZM37.8211 27.4406C37.8211 27.4406 37.8544 26.7878 37.7547 25.7109V25.7019C37.2017 21.3929 35.1947 17.5327 32.2396 14.6271L26.4145 20.9835L0.00012207 30.7472L1.69682 35.3125L28.0416 25.5747L37.8211 27.4406ZM27.1922 17.6483C23.5269 13.8878 16.9186 12.3372 11.4187 14.371C5.35571 16.6131 1.70174 22.3647 1.64022 28.3518L25.4481 19.5517L27.1922 17.6483ZM3.68122 36.3681C5.51995 39.4499 8.44219 41.7272 11.9751 42.8596V53.689H30.0694L30.0548 44.9409L32.1163 44.1002C35.077 43.0068 36.763 39.6973 35.5941 36.5471L34.13 32.6124L35.875 31.9682C36.8893 31.5936 37.153 30.2846 36.3621 29.5486L35.511 28.7562L28.1813 27.3122L3.68122 36.3681Z" fill="white"/>
</svg>
