<svg width="17" height="19" viewBox="0 0 17 19" fill="none" xmlns="http://www.w3.org/2000/svg">
<path d="M14.1018 15.1379L13.5337 14.7036C13.8821 14.2499 14.1865 13.7606 14.4385 13.249L15.0808 13.5639C14.8081 14.1174 14.4788 14.6469 14.1018 15.1379ZM16.0431 9.41747C16.0431 9.34784 16.0423 9.27843 16.0408 9.20917L15.3253 9.22476C15.3267 9.28888 15.3274 9.35314 15.3274 9.41747C15.3274 10.4834 15.1365 11.5242 14.7601 12.5111L15.429 12.765C15.8364 11.6967 16.0431 10.5704 16.0431 9.41747ZM15.982 8.34094C15.8437 7.12879 15.4759 5.97176 14.889 4.90213L14.2613 5.24489C14.8035 6.23301 15.1431 7.30192 15.2709 8.42174L15.982 8.34094ZM14.4348 4.15829C13.7515 3.14762 12.8915 2.28926 11.8787 1.60714L11.4782 2.19881C12.4146 2.82951 13.2097 3.62304 13.8415 4.55748L14.4348 4.15829ZM11.1334 1.15377C10.0615 0.567745 8.90189 0.200248 7.68679 0.0615758L7.60542 0.770894C8.72797 0.898978 9.79918 1.23848 10.7893 1.77982L11.1334 1.15377ZM6.60198 0.713888C6.66829 0.713888 6.73445 0.714685 6.8004 0.716136L6.81647 0.00246593C6.74529 0.000870323 6.67389 0 6.6022 0C5.44817 0 4.32083 0.205398 3.25144 0.610536L3.50555 1.27793C4.49344 0.903692 5.53528 0.713888 6.60198 0.713888ZM2.7608 1.60075L2.44525 0.959973C1.89049 1.23181 1.35964 1.56043 0.867409 1.93656L1.30271 2.50328C1.75765 2.15559 2.24821 1.85192 2.7608 1.60075ZM12.8751 9.34139C12.8751 9.34139 12.8864 9.11916 12.8525 8.75254V8.74949C12.6642 7.28262 11.981 5.9685 10.975 4.97937L8.99204 7.14323L0 10.467L0.577594 12.0211L9.54593 8.70619L12.8751 9.34139ZM9.25677 6.00788C8.00903 4.7277 5.75944 4.19985 3.88713 4.89219C1.82316 5.65547 0.579266 7.61342 0.558326 9.65159L8.66304 6.65584L9.25677 6.00788ZM1.25313 12.3805C1.87907 13.4296 2.87386 14.2049 4.07653 14.5903V18.2769H10.2362L10.2313 15.2989L10.9331 15.0127C11.9409 14.6405 12.5149 13.5138 12.117 12.4414L11.6186 11.102L12.2126 10.8827C12.5579 10.7552 12.6477 10.3096 12.3784 10.059L12.0887 9.78925L9.59348 9.29766L1.25313 12.3805Z" fill="#9B9B9B"/>
</svg>
